<svg width="121" height="121" viewBox="0 0 121 121" fill="none" xmlns="http://www.w3.org/2000/svg">
<circle cx="60.5" cy="60.5" r="60.5" fill="#F4F6F9"/>
<path d="M40.5122 27C40.5122 25.3432 41.857 23.9892 43.5101 24.1017C50.2359 24.5594 56.557 26.547 61.3805 29.7626C66.9151 33.4524 70.0244 38.4567 70.0244 43.6748C70.0244 48.8929 66.9151 53.8973 61.3805 57.587C56.5571 60.8026 50.2359 62.7902 43.5101 63.2479C41.857 63.3604 40.5122 62.0065 40.5122 60.3496L40.5122 59.8363C40.5122 58.1794 41.859 56.8527 43.5072 56.684C47.6344 56.2617 51.4831 54.974 54.4721 52.9814C58.1745 50.5131 60.2544 47.1655 60.2544 43.6748C60.2544 40.1842 58.1745 36.8365 54.4721 34.3682C51.4831 32.3756 47.6344 31.0879 43.5072 30.6656C41.859 30.497 40.5122 29.1702 40.5122 27.5133V27Z" fill="url(#paint0_linear_130_68)"/>
<rect x="25.7561" y="24" width="8.04878" height="65.7317" rx="4.02439" fill="url(#paint1_linear_130_68)"/>
<path d="M45.1114 76.3395L48.6634 86.5635C48.7834 86.8515 48.8794 87.0675 48.9514 87.1875C49.0234 87.3315 49.1434 87.4515 49.3354 87.5955C49.5274 87.7395 49.7434 87.7875 50.0314 87.7875C50.7994 87.8115 51.3274 87.4275 51.6394 86.6595L55.5274 76.4835C56.1754 83.2995 56.5354 86.8755 56.5834 87.2595C56.6794 88.0035 57.1114 88.3635 57.9034 88.3635C58.2874 88.3635 58.6234 88.2435 58.8874 88.0035C59.1274 87.7635 59.2474 87.4275 59.2234 86.9955C59.0554 85.6995 58.8154 83.7315 58.5034 81.0915C58.1914 78.4755 57.9514 76.4595 57.7834 75.0675C57.5914 73.6755 57.4474 72.7635 57.3514 72.3795C57.1594 72.0675 56.7994 71.8995 56.2474 71.8515C56.0794 71.8515 55.8394 71.8515 55.5514 71.8755C55.0714 72.0195 54.6634 72.4995 54.3034 73.3155C52.1914 78.8835 50.8954 82.2915 50.3674 83.5875L50.1514 84.1635C50.1034 84.0435 50.0074 83.7075 49.8154 83.1315L46.3594 73.2195C46.0474 72.3555 45.5674 71.8995 44.9194 71.8995C44.5354 71.8995 44.1514 71.9715 43.8154 72.1155C43.4794 72.2835 43.2634 72.5235 43.1674 72.8355C42.0154 81.2835 41.3434 85.9875 41.1994 86.9475C41.1274 87.3555 41.2234 87.6915 41.4634 87.9555C41.7034 88.2195 42.0394 88.3395 42.4714 88.3395C43.2394 88.3395 43.6714 87.9795 43.8154 87.2595C43.8634 86.9235 44.0554 85.3155 44.3914 82.4355C44.7274 79.5555 44.9674 77.5155 45.1114 76.3395ZM71.7621 72.5955C70.5621 72.0195 69.1701 71.7315 67.6341 71.7315C66.0741 71.7315 64.7301 72.2115 63.5781 73.1715C62.4261 74.1315 61.8741 75.3315 61.8741 76.7235C61.8741 77.3955 61.9941 77.9715 62.2821 78.4755C62.5461 78.9795 62.9301 79.3875 63.4581 79.6995C63.9621 80.0355 64.4901 80.2755 65.0661 80.4675C65.6181 80.6595 66.2661 80.8515 67.0341 80.9955C68.0901 81.2115 68.9061 81.4995 69.4821 81.8595C70.0581 82.2195 70.3701 82.7475 70.3701 83.4435C70.3701 84.2115 70.0581 84.8115 69.4821 85.2435C68.8821 85.6995 68.1141 85.9155 67.2021 85.9155C66.1701 85.9155 65.0901 85.6275 63.9381 85.0515C63.4341 84.8835 63.0741 84.7875 62.8581 84.7875C62.5221 84.7875 62.2341 84.9315 62.0181 85.1955C61.7781 85.4835 61.6821 85.7955 61.6821 86.1315C61.6821 86.7075 61.9941 87.1395 62.6661 87.4515C63.9621 88.0995 65.4981 88.4115 67.2261 88.4115C68.9301 88.4115 70.3221 87.9315 71.4261 87.0195C72.5061 86.1075 73.0581 84.8835 73.0581 83.3475C73.0581 81.9555 72.6021 80.9475 71.6901 80.2755C70.7781 79.6035 69.5061 79.0995 67.8261 78.7155C67.3461 78.6195 66.9861 78.5235 66.7941 78.4755C66.6021 78.4275 66.3141 78.3555 65.9541 78.2115C65.5941 78.0915 65.3301 77.9715 65.1861 77.8275C65.0421 77.7075 64.8981 77.5395 64.7541 77.3235C64.6101 77.1075 64.5621 76.8435 64.5621 76.5555C64.5621 75.8835 64.8501 75.3075 65.4261 74.8275C66.0021 74.3715 66.7221 74.1315 67.5621 74.1315C68.5221 74.1315 69.4101 74.3235 70.2501 74.7075C70.7781 74.9235 71.1621 75.0195 71.4021 75.0195C71.7141 75.0195 71.9781 74.8995 72.2181 74.6355C72.4341 74.3715 72.5541 74.0835 72.5541 73.7955C72.5541 73.2675 72.2901 72.8595 71.7621 72.5955ZM76.1867 83.6595C76.5707 83.6595 77.2667 83.6835 78.2267 83.6835C79.1867 83.6835 79.9307 83.6835 80.4107 83.6835C81.3707 83.6835 81.8747 83.2755 81.8747 82.4355C81.8747 81.6675 81.4667 81.2595 80.6987 81.2595H76.3067C75.4427 81.2595 75.0107 81.6675 75.0107 82.4595C75.0107 82.8195 75.1067 83.1075 75.2987 83.3235C75.4907 83.5635 75.8027 83.6595 76.1867 83.6595ZM91.8923 82.9635C91.8923 83.8995 91.5803 84.6435 91.0043 85.1715C90.4283 85.7235 89.6843 85.9875 88.7723 85.9875C87.9803 85.9875 87.0923 85.7235 86.1323 85.1955C85.5563 84.9075 85.1483 84.7395 84.8603 84.7395C84.5723 84.7395 84.3083 84.8835 84.0683 85.1235C83.8283 85.3635 83.7323 85.6755 83.7323 86.0355C83.7323 86.5635 84.0443 86.9955 84.7163 87.3795C85.9403 88.0995 87.2843 88.4355 88.7483 88.4355C90.5243 88.4355 91.9163 87.9315 92.9723 86.9235C94.0043 85.9395 94.5323 84.5715 94.5323 82.8195C94.5083 81.4995 94.0283 80.4195 93.0923 79.6035C92.1323 78.7875 91.0283 78.3795 89.7563 78.3315L93.4523 74.5635C94.0043 74.0835 94.2923 73.5795 94.2923 73.0995C94.2923 72.3075 93.8603 71.8995 92.9963 71.8995C92.4683 71.8995 91.6283 71.9235 90.5243 71.9235C89.4203 71.9475 88.6043 71.9475 88.0763 71.9475C87.6443 71.9475 87.0923 71.9475 86.3963 71.9235C85.7003 71.9235 85.3163 71.8995 85.2683 71.8995C84.8603 71.8995 84.5483 72.0195 84.3323 72.2595C84.1163 72.4995 84.0203 72.8115 84.0203 73.1475C84.0203 73.9635 84.4523 74.3475 85.3643 74.3475C85.7483 74.3475 86.6363 74.3475 88.0283 74.3235C89.4203 74.2995 90.3083 74.2755 90.7163 74.2515C88.8443 76.1475 87.6203 77.3715 86.9963 77.9475C86.6123 78.3315 86.4203 78.7155 86.4203 79.0995C86.4203 79.4595 86.5163 79.7715 86.7563 80.0115C86.9963 80.2515 87.2843 80.3715 87.6443 80.3715C87.9803 80.3715 88.2683 80.3475 88.5563 80.3475C89.4923 80.3475 90.2843 80.5875 90.9323 81.0195C91.5563 81.4515 91.8923 82.0995 91.8923 82.9635ZM103.871 79.5795L103.847 82.6035L99.3829 82.6515L101.135 79.4115C101.399 78.9315 101.903 78.0675 102.671 76.7715C103.439 75.4995 104.015 74.4675 104.423 73.6995C104.543 73.4115 104.615 73.1475 104.615 72.9555C104.615 72.6675 104.447 72.4275 104.135 72.1875C103.823 71.9475 103.487 71.8275 103.151 71.8275C102.599 71.8275 102.167 72.1155 101.855 72.6915C99.9589 76.3395 98.3269 79.3635 96.9349 81.7635C96.5509 82.3395 96.3829 82.9395 96.3829 83.5395C96.3829 83.9235 96.5029 84.2835 96.7429 84.5715C96.9829 84.8595 97.3429 85.0035 97.8229 85.0035C98.3749 85.0035 99.3589 85.0035 100.799 85.0035C102.215 85.0035 103.223 84.9795 103.847 84.9795C103.847 85.2675 103.823 85.6515 103.823 86.1075C103.823 86.5635 103.823 86.9235 103.823 87.1875C103.823 87.9795 104.231 88.3635 105.071 88.3635C105.503 88.3635 105.791 88.2435 105.983 88.0515C106.175 87.8595 106.271 87.5715 106.295 87.1875V84.9795H108.047C108.767 84.9795 109.151 84.5475 109.151 83.6595C109.151 82.9155 108.743 82.5555 107.975 82.5555L106.295 82.5795L106.319 79.3395C106.271 78.9315 106.175 78.6195 105.983 78.4275C105.791 78.2355 105.455 78.1395 105.023 78.1395C104.255 78.1395 103.871 78.6195 103.871 79.5795Z" fill="url(#paint2_linear_130_68)"/>
<defs>
<linearGradient id="paint0_linear_130_68" x1="65.2061" y1="36.0732" x2="37.3445" y2="59.775" gradientUnits="userSpaceOnUse">
<stop stop-color="#1C213E"/>
<stop offset="1" stop-color="#4E73DF"/>
</linearGradient>
<linearGradient id="paint1_linear_130_68" x1="31.3354" y1="29.3659" x2="20.3024" y2="31.748" gradientUnits="userSpaceOnUse">
<stop stop-color="#1C213E"/>
<stop offset="1" stop-color="#4E73DF"/>
</linearGradient>
<linearGradient id="paint2_linear_130_68" x1="73" y1="88" x2="88.4037" y2="56.3781" gradientUnits="userSpaceOnUse">
<stop stop-color="#1C213E"/>
<stop offset="1" stop-color="#4E73DF"/>
</linearGradient>
</defs>
</svg>
