<svg width="60" height="66" viewBox="0 0 60 66" fill="none" xmlns="http://www.w3.org/2000/svg">
<path d="M29.5122 3.00001C29.5122 1.34316 30.857 -0.0107668 32.5101 0.101723C39.2359 0.559418 45.557 2.547 50.3805 5.76263C55.9151 9.45237 59.0244 14.4567 59.0244 19.6748C59.0244 24.8929 55.9151 29.8973 50.3805 33.587C45.5571 36.8026 39.2359 38.7902 32.5101 39.2479C30.857 39.3604 29.5122 38.0065 29.5122 36.3496L29.5122 35.8363C29.5122 34.1794 30.859 32.8527 32.5072 32.684C36.6344 32.2617 40.4831 30.974 43.4721 28.9814C47.1745 26.5131 49.2544 23.1655 49.2544 19.6748C49.2544 16.1842 47.1745 12.8365 43.4721 10.3682C40.4831 8.3756 36.6344 7.08788 32.5072 6.66561C30.859 6.49697 29.5122 5.17019 29.5122 3.51333V3.00001Z" fill="url(#paint0_linear_130_64)"/>
<rect x="14.7561" width="8.04878" height="65.7317" rx="4.02439" fill="url(#paint1_linear_130_64)"/>
<defs>
<linearGradient id="paint0_linear_130_64" x1="54.2061" y1="12.0732" x2="26.3445" y2="35.775" gradientUnits="userSpaceOnUse">
<stop stop-color="#1C213E"/>
<stop offset="1" stop-color="#4E73DF"/>
</linearGradient>
<linearGradient id="paint1_linear_130_64" x1="20.3354" y1="5.36585" x2="9.30244" y2="7.74797" gradientUnits="userSpaceOnUse">
<stop stop-color="#1C213E"/>
<stop offset="1" stop-color="#4E73DF"/>
</linearGradient>
</defs>
</svg>
